<?xml version="1.0" encoding="UTF-8"?>
<svg id="Flat" xmlns="http://www.w3.org/2000/svg" viewBox="0 0 834.01292 448.9304">
  <defs>
    <style>
      .cls-1 {
        fill: #fff;
        stroke-width: 0px;
      }
    </style>
  </defs>
  <g>
    <path class="cls-1" d="M379.99376,121.4446v24.06h63.31c1.56,0,2.97998.63,4.01001,1.65997,1.02997,1.03003,1.65997,2.45001,1.65997,4.01001v18.41998c0,3.13-2.53998,5.67004-5.66998,5.67004h-13.37c-17.02002,0-33.70001,1.41998-49.94,4.13995v14.03003h63.31c3.13,0,5.66998,2.53998,5.66998,5.66998v25.10004c0,3.12994-2.53998,5.66998-5.66998,5.66998h-94.64001c-3.13,0-5.65997-2.54004-5.65997-5.66998V86.56459c0-3.13,2.52997-5.66998,5.65997-5.66998h94.64001c3.13,0,5.66998,2.53998,5.66998,5.66998v25.08997c0,3.13-2.53998,5.67004-5.66998,5.67004h-9.48999c-1.29004-.01001-2.59003-.02002-3.88-.02002s-2.59003.01001-3.88.02002c-15.66998.19995-31.04999,1.59998-46.06,4.12Z"/>
    <path class="cls-1" d="M433.81377,117.3246h-7.76001c1.28998-.01001,2.58997-.02002,3.88-.02002s2.58997.01001,3.88.02002Z"/>
    <path class="cls-1" d="M433.81377,117.3246h-7.76001c1.28998-.01001,2.58997-.02002,3.88-.02002s2.58997.01001,3.88.02002Z"/>
  </g>
  <g>
    <path class="cls-1" d="M499.78321,275.53567v24.06h63.31c1.56,0,2.97998.63,4.01001,1.65997,1.02997,1.03003,1.65997,2.45001,1.65997,4.01001v18.41998c0,3.13-2.53998,5.67004-5.66998,5.67004h-13.37c-17.02002,0-33.70001,1.41998-49.94,4.13995v14.03003h63.31c3.13,0,5.66998,2.53998,5.66998,5.66998v25.10004c0,3.12994-2.53998,5.66998-5.66998,5.66998h-94.64001c-3.13,0-5.65997-2.54004-5.65997-5.66998v-137.64001c0-3.13,2.52997-5.66998,5.65997-5.66998h94.64001c3.13,0,5.66998,2.53998,5.66998,5.66998v25.08997c0,3.13-2.53998,5.67004-5.66998,5.67004h-9.48999c-1.29004-.01001-2.59003-.02002-3.88-.02002s-2.59003.01001-3.88.02002c-15.66998.19995-31.04999,1.59998-46.06,4.12Z"/>
    <path class="cls-1" d="M553.60322,271.41567h-7.76001c1.28998-.01001,2.58997-.02002,3.88-.02002s2.58997.01001,3.88.02002Z"/>
    <path class="cls-1" d="M553.60322,271.41567h-7.76001c1.28998-.01001,2.58997-.02002,3.88-.02002s2.58997.01001,3.88.02002Z"/>
  </g>
  <path class="cls-1" d="M220.89246,239.95136c0-3.13148-2.53857-5.67004-5.67004-5.67004h-94.63c-3.13145,0-5.66998,2.53854-5.66998,5.66998v137.63007c0,3.13145,2.53854,5.66998,5.66998,5.66998h32.36005v-66.79004h20.98999c.27997,1.04999.56,2.10999.82996,3.17004,5.21002,20.33997,8,41.65997,8.08002,63.62h32.37c3.13148,0,5.67004-2.53857,5.67004-5.67004v-55.90098c0-1.89491-1.0178-3.65376-2.67728-4.56854-2.428-1.33842-4.8851-2.63464-7.36731-3.88471-.94635-.47659-.84548-1.84445.16039-2.17754,2.15876-.71488,4.30351-1.46388,6.4316-2.24834,2.06754-.76213,3.45259-2.71793,3.45259-4.92146v-63.92838ZM179.62244,278.84131c-3.03003,1.12-5.41998,3.52002-6.54999,6.54999l-3.22003,8.71002-3.21997-8.71002c-1.05005-2.81-3.17999-5.07996-5.91003-6.28998-.20996-.09003-.42999-.17999-.64996-.26001l-8.71002-3.21997,6.64001-2.46002,2.07001-.77002c3.03998-1.12,5.42999-3.50995,6.56-6.54999l3.21997-8.70996,3.22003,8.70996c1.13,3.04004,3.51996,5.42999,6.54999,6.54999l8.71997,3.23004-8.71997,3.21997Z"/>
  <path class="cls-1" d="M456.39144,234.99069c2.69454,0,4.61831,2.61012,3.82078,5.18392l-23.52369,75.91605-19.79313,63.87817c-.7355,2.37368-2.93094,3.99182-5.41596,3.99182h-21.61153c-2.48517,0-4.6807-1.61834-5.41608-3.99221l-8.5833-27.70774-2.98999-9.64001-8.22003-26.53003-23.51445-75.91648c-.79719-2.57372,1.12656-5.18349,3.82091-5.18349h38.65287l9.76071,81.09998h11.26001c14.13-24.79999,23.34998-52.10999,28.83997-81.09998h22.91294Z"/>
  <path class="cls-1" d="M669.54517,311.0495c2.15875-.71484,4.30353-1.46387,6.43164-2.24829,2.0675-.76215,3.45258-2.71796,3.45258-4.92151v-63.92834c0-3.13147-2.53857-5.67004-5.67004-5.67004h-94.63c-3.13147,0-5.66998,2.53851-5.66998,5.66998v137.63007c0,3.13141,2.53851,5.66998,5.66998,5.66998h32.36005v-66.79004h20.98999c.27997,1.04999.56,2.10999.82996,3.17004,5.21002,20.33997,8,41.65997,8.08002,63.62h32.37c3.13147,0,5.67004-2.53857,5.67004-5.67004v-55.901c0-1.8949-1.01782-3.65375-2.67731-4.56854-2.42798-1.33844-4.88507-2.63464-7.36731-3.8847-.94635-.47656-.84546-1.84442.1604-2.17755ZM623.53205,290.25251c-1.07037,0-1.93811-.86774-1.93811-1.93811s.86774-1.93805,1.93811-1.93805,1.93805.86768,1.93805,1.93805-.86768,1.93811-1.93805,1.93811ZM623.53199,283.43366c-8.08087,0-14.63177-6.55084-14.63177-14.63177s6.5509-14.63184,14.63177-14.63184,14.63184,6.5509,14.63184,14.63184-6.5509,14.63177-14.63184,14.63177ZM640.18964,265.42102c-1.71692-7.62305-8.51599-13.3219-16.65765-13.3219s-14.94067,5.69885-16.65759,13.3219h-1.86761c1.74597-8.63513,9.37537-15.1369,18.52521-15.1369s16.7793,6.50177,18.52527,15.1369h-1.86761Z"/>
  <g>
    <path class="cls-1" d="M253.5321,256.74686c-4.13574,0-7.50049,3.36426-7.50049,7.5s3.36475,7.50098,7.50049,7.50098,7.5-3.36523,7.5-7.50098-3.36426-7.5-7.5-7.5ZM249.24206,264.28378c.1145,4.30853,4.28986,6.55341,4.28986,6.55341,0,0-6.08606.20599-6.50311-5.32062-.55426-7.34387,6.50311-7.78723,6.50311-7.78723-4.53552,1.94843-4.33997,4.66919-4.28986,6.55444Z"/>
    <path class="cls-1" d="M259.89636,256.49197c-1.8125-1.49219-4.03955-2.28711-6.35693-2.28711-.32764,0-.65674.01562-.98682.04785-2.66699.25879-5.07373,1.54004-6.77637,3.6084-1.70312,2.06836-2.49854,4.67676-2.23975,7.34375s1.54053,5.07324,3.60938,6.77637,4.67285,2.49902,7.34375,2.23926c2.66699-.25781,5.07373-1.54004,6.77637-3.60938,1.70312-2.06836,2.49854-4.67676,2.23975-7.34375-.25879-2.66602-1.54053-5.07324-3.60938-6.77539ZM253.5321,273.74783c-5.23877,0-9.50049-4.26172-9.50049-9.50098,0-5.23828,4.26172-9.5,9.50049-9.5,5.23828,0,9.5,4.26172,9.5,9.5,0,5.23926-4.26172,9.50098-9.5,9.50098Z"/>
    <path class="cls-1" d="M302.71113,275.32485c-1.8125-1.49219-4.03955-2.28711-6.35693-2.28711-.32764,0-.65674.01562-.98682.04785-2.66699.25879-5.07373,1.54004-6.77637,3.6084-1.70312,2.06836-2.49854,4.67676-2.23975,7.34375s1.54053,5.07324,3.60938,6.77637,4.67285,2.49902,7.34375,2.23926c2.66699-.25781,5.07373-1.54004,6.77637-3.60938,1.70312-2.06836,2.49854-4.67676,2.23975-7.34375-.25879-2.66602-1.54053-5.07324-3.60938-6.77539ZM296.34687,292.58071c-5.23877,0-9.50049-4.26172-9.50049-9.50098,0-5.23828,4.26172-9.5,9.50049-9.5,5.23828,0,9.5,4.26172,9.5,9.5,0,5.23926-4.26172,9.50098-9.5,9.50098Z"/>
    <path class="cls-1" d="M316.77107,243.85494c3.34485,0,6.18323-2.20209,7.14722-5.23187-3.60803-1.99274-7.54504-3.45276-11.70471-4.27698.04285,1.71967.97534,2.85687,1.68274,3.77051,2.63867,3.40802,7.33356,2.75134,7.33356,2.75134,0,0-4.78778,3.76294-8.39038-.44885-2.03021-2.37354-2.21997-4.5531-1.76825-6.27844-.46143-.0777-.92578-.14539-1.39221-.20728-.26044.76062-.40845,1.57281-.40845,2.42059,0,4.13574,3.36475,7.50098,7.50049,7.50098Z"/>
    <path class="cls-1" d="M263.05061,342.25545c-6.96283,0-12.62762,5.66394-12.62762,12.62677s5.66479,12.62848,12.62762,12.62848,12.62683-5.66559,12.62683-12.62848-5.664-12.62677-12.62683-12.62677ZM255.82795,354.94436c.19281,7.25378,7.22235,11.03326,7.22235,11.03326,0,0-10.24634.34674-10.94855-8.95776-.93311-12.36389,10.94855-13.11041,10.94855-13.11041-7.63593,3.2804-7.3067,7.86102-7.22235,11.03491Z"/>
    <path class="cls-1" d="M269.23103,310.15102c3.0705,0,5.56818-2.49841,5.56818-5.56891s-2.49768-5.56818-5.56818-5.56818-5.56854,2.49768-5.56854,5.56818,2.49805,5.56891,5.56854,5.56891ZM269.23091,299.74337c-3.36731,1.44653-3.22211,3.46649-3.18494,4.86615.08502,3.19879,3.18494,4.86542,3.18494,4.86542,0,0-4.51843.15289-4.82806-3.9502-.4115-5.45221,4.82806-5.78137,4.82806-5.78137Z"/>
    <path class="cls-1" d="M296.34687,275.57973c-4.13574,0-7.50049,3.36426-7.50049,7.5s3.36475,7.50098,7.50049,7.50098,7.5-3.36523,7.5-7.50098-3.36426-7.5-7.5-7.5ZM293.0796,284.06417c.34912,4.2959,3.26709,5.6059,3.26709,5.6059,0,0-6.08606.20599-6.50311-5.32062-.55426-7.34387,6.50311-7.78723,6.50311-7.78723-3.26709,3.17889-3.34406,6.55444-3.26709,7.50195Z"/>
    <path class="cls-1" d="M327.60511,321.09511c-1.8125-1.49219-4.03955-2.28711-6.35693-2.28711-.32764,0-.65674.01562-.98682.04785-2.66699.25879-5.07373,1.54004-6.77637,3.6084-1.70312,2.06836-2.49854,4.67676-2.23975,7.34375s1.54053,5.07324,3.60938,6.77637,4.67285,2.49902,7.34375,2.23926c2.66699-.25781,5.07373-1.54004,6.77637-3.60938,1.70312-2.06836,2.49854-4.67676,2.23975-7.34375-.25879-2.66602-1.54053-5.07324-3.60938-6.77539ZM321.24086,338.35097c-5.23877,0-9.50049-4.26172-9.50049-9.50098,0-5.23828,4.26172-9.5,9.50049-9.5,5.23828,0,9.5,4.26172,9.5,9.5,0,5.23926-4.26172,9.50098-9.5,9.50098Z"/>
    <path class="cls-1" d="M261.81007,305.29336c.19214,1.98004,1.14374,3.76648,2.67969,5.03094,1.53595,1.2644,3.46924,1.85535,5.45215,1.66248,1.98004-.19141,3.76685-1.14337,5.03094-2.67969,1.26447-1.53558,1.85498-3.47211,1.66284-5.45215-.19214-1.97931-1.14374-3.76654-2.67969-5.03021-1.34564-1.10785-2.99908-1.698-4.71954-1.698-.24323,0-.48755.0116-.7326.03552-1.98004.19214-3.76685,1.14331-5.03094,2.67896-1.26447,1.53558-1.85498,3.47211-1.66284,5.45215ZM269.23103,297.52907c3.88904,0,7.05304,3.164,7.05304,7.05304,0,3.88977-3.164,7.05377-7.05304,7.05377-3.8894,0-7.05341-3.164-7.05341-7.05377,0-3.88904,3.164-7.05304,7.05341-7.05304Z"/>
    <path class="cls-1" d="M310.38484,244.08834c2.06885,1.70312,4.67285,2.49902,7.34375,2.23926,2.66699-.25781,5.07373-1.54004,6.77637-3.60938.69672-.84607,1.23248-1.78564,1.61536-2.77954-.15051-.09589-.29858-.1955-.45044-.28949-1.34375,3.61707-4.82013,6.20575-8.8988,6.20575-5.23877,0-9.50049-4.26172-9.50049-9.50098,0-.91595.13739-1.79919.38043-2.63788-.18524-.01514-.37048-.03003-.55634-.04266-.32233,1.16852-.43982,2.39587-.31921,3.63855.25879,2.66699,1.54053,5.07324,3.60938,6.77637Z"/>
    <path class="cls-1" d="M321.24086,321.35c-4.13574,0-7.50049,3.36426-7.50049,7.5s3.36475,7.50098,7.50049,7.50098,7.5-3.36523,7.5-7.50098-3.36426-7.5-7.5-7.5ZM316.95082,328.88692c.1145,4.30853,4.28986,6.55341,4.28986,6.55341,0,0-6.08606.20599-6.50311-5.32062-.55426-7.34387,6.50311-7.78723,6.50311-7.78723-4.53552,1.94843-4.33997,4.66925-4.28986,6.55444Z"/>
    <g>
      <path class="cls-1" d="M326.98298,240.49306c-.41589,1.021-.98523,1.9856-1.70605,2.8609-1.87256,2.27539-4.51904,3.68457-7.45166,3.96973-.36279.03516-.7251.05273-1.08496.05273-2.54883,0-4.99756-.875-6.99121-2.5166-2.2749-1.87207-3.68457-4.51855-3.96875-7.45215-.12561-1.29401-.01282-2.57178.29913-3.79504-.5835-.02509-1.16833-.04486-1.75769-.04486h-38.03668c-22.43103,0-40.78369,18.35266-40.78369,40.78369v72.97797c0,22.43103,18.35266,40.78369,40.78369,40.78369h38.03668c22.43097,0,40.78363-18.35266,40.78363-40.78369v-72.97797c0-14.06189-7.21411-26.5188-18.12244-33.8584ZM268.43208,296.42269c2.17542-.21094,4.30627.43793,5.99591,1.82855,1.68896,1.39056,2.73553,3.35468,2.94647,5.53259.21136,2.17725-.43787,4.30664-1.82849,5.99524-1.3902,1.68933-3.35504,2.73553-5.53229,2.9472-.26935.02612-.53833.03918-.80548.03918-1.89233,0-3.71033-.64966-5.19043-1.86841-1.68896-1.38989-2.73553-3.35468-2.94653-5.53265-.2113-2.17725.43793-4.30591,1.82855-5.99518,1.3902-1.6886,3.35504-2.7348,5.53229-2.94653ZM245.00428,257.22536c1.87256-2.27441,4.51904-3.68359,7.45166-3.96875,2.93018-.28418,5.80029.58984,8.07617,2.46289,2.2749,1.87305,3.68457,4.51855,3.96875,7.45215.28467,2.93262-.58984,5.80078-2.46289,8.0752-1.87256,2.27539-4.51904,3.68457-7.45166,3.96973-.36279.03516-.7251.05273-1.08496.05273-2.54883,0-4.99756-.875-6.99121-2.5166-2.2749-1.87207-3.68457-4.51855-3.96875-7.45215-.28467-2.93262.58984-5.7998,2.46289-8.0752ZM263.03187,372.77523c-9.875,0-17.90918-8.03418-17.90918-17.91016,0-9.875,8.03418-17.90918,17.90918-17.90918s17.90967,8.03418,17.90967,17.90918c0,9.87598-8.03418,17.91016-17.90967,17.91016ZM304.85273,290.07973c-1.87256,2.27539-4.51904,3.68457-7.45166,3.96973-.36279.03516-.7251.05273-1.08496.05273-2.54883,0-4.99756-.875-6.99121-2.5166-2.2749-1.87207-3.68457-4.51855-3.96875-7.45215-.28467-2.93262.58984-5.7998,2.46289-8.0752,1.87256-2.27441,4.51904-3.68359,7.45166-3.96875,2.93018-.28418,5.80029.58984,8.07617,2.46289,2.2749,1.87305,3.68457,4.51855,3.96875,7.45215.28467,2.93262-.58984,5.80078-2.46289,8.0752ZM329.74671,335.85c-1.87256,2.27539-4.51904,3.68457-7.45166,3.96973-.36279.03516-.7251.05273-1.08496.05273-2.54883,0-4.99756-.875-6.99121-2.5166-2.2749-1.87207-3.68457-4.51855-3.96875-7.45215-.28467-2.93262.58984-5.7998,2.46289-8.0752,1.87256-2.27441,4.51904-3.68359,7.45166-3.96875,2.93018-.28418,5.80029.58984,8.07617,2.46289,2.2749,1.87305,3.68457,4.51855,3.96875,7.45215.28467,2.93262-.58984,5.80078-2.46289,8.0752Z"/>
      <path class="cls-1" d="M263.03187,337.45589c-9.59961,0-17.40918,7.80957-17.40918,17.40918s7.80957,17.41016,17.40918,17.41016,17.40967-7.81055,17.40967-17.41016-7.81006-17.40918-17.40967-17.40918ZM263.05061,370.87789c-8.81989,0-15.99481-7.17493-15.99481-15.99567,0-8.81903,7.17493-15.99396,15.99481-15.99396,8.81903,0,15.99396,7.17493,15.99396,15.99396,0,8.82074-7.17493,15.99567-15.99396,15.99567Z"/>
    </g>
  </g>
  <path class="cls-1" d="M312.77413,147.08455l15.36914-4.78979c1.67212-.521,2.81104-2.06885,2.81104-3.82019v-49.57996c0-4.41833-3.58179-8-8-8H123.40426c-4.38525,0-7.94019,3.55481-7.94019,7.93994v29.40698h4.81885c.61206,0,1.1084-.30908,1.1084-.69019,0-.38135.49634-.69031,1.1084-.69031h14.12354c.6123,0,1.1084.30896,1.1084.69031,0,.3811.49658.69019,1.10864.69019h13.0437c.6123,0,1.1084-.30908,1.1084-.69019,0-.38135.49658-.69031,1.10864-.69031h14.12354c.6123,0,1.10864.30896,1.10864.69031,0,.3811.49609.69019,1.1084.69019h13.0437c.6123,0,1.10864-.30908,1.10864-.69019,0-.38135.49609-.69031,1.1084-.69031h14.12329c.6123,0,1.10864.30896,1.10864.69031,0,.3811.49609.69019,1.1084.69019h13.04395c.6123,0,1.1084-.30908,1.1084-.69019,0-.38135.49658-.69031,1.10864-.69031h14.12329c.6123,0,1.1084.30896,1.1084.69031,0,.3811.49658.69019,1.10864.69019h13.04395c.6123,0,1.10864-.30908,1.10864-.69019,0-.38135.49609-.69031,1.1084-.69031h14.12329c.6123,0,1.10864.30896,1.10864.69031v13.25146c0,.3811-.49634.69019-1.10864.69019h-14.12329c-.6123,0-1.1084-.30908-1.1084-.69019v-.69019c0-.38123-.49634-.69019-1.10864-.69019h-13.04395c-.61206,0-1.10864.30896-1.10864.69019v.69019c0,.3811-.49609.69019-1.1084.69019h-14.12329c-.61206,0-1.10864-.30908-1.10864-.69019v-.69019c0-.38123-.49609-.69019-1.1084-.69019h-13.04395c-.6123,0-1.1084.30896-1.1084.69019v.69019c0,.3811-.49634.69019-1.10864.69019h-14.12329c-.6123,0-1.1084-.30908-1.1084-.69019v-.69019c0-.38123-.49634-.69019-1.10864-.69019h-13.0437c-.6123,0-1.1084.30896-1.1084.69019v.69019c0,.3811-.49634.69019-1.10864.69019h-14.12354c-.61206,0-1.10864-.30908-1.10864-.69019v-.69019c0-.38123-.49609-.69019-1.1084-.69019h-13.0437c-.61206,0-1.10864.30896-1.10864.69019v.69019c0,.3811-.49609.69019-1.1084.69019h-14.12354c-.61206,0-1.1084-.30908-1.1084-.69019v-.69019c0-.38123-.49634-.69019-1.1084-.69019h-4.81885v61.97803h4.81885c.61206,0,1.1084-.30896,1.1084-.69019,0-.3811.49634-.69019,1.1084-.69019h14.12354c.6123,0,1.1084.30908,1.1084.69019,0,.38123.49658.69019,1.10864.69019h13.0437c.6123,0,1.1084-.30896,1.1084-.69019,0-.3811.49658-.69019,1.10864-.69019h14.12354c.6123,0,1.10864.30908,1.10864.69019,0,.38123.49609.69019,1.1084.69019h13.0437c.6123,0,1.10864-.30896,1.10864-.69019,0-.3811.49609-.69019,1.1084-.69019h14.12329c.6123,0,1.10864.30908,1.10864.69019,0,.38123.49609.69019,1.1084.69019h13.04395c.6123,0,1.1084-.30896,1.1084-.69019,0-.3811.49658-.69019,1.10864-.69019h14.12329c.6123,0,1.1084.30908,1.1084.69019,0,.38123.49658.69019,1.10864.69019h13.04395c.6123,0,1.10864-.30896,1.10864-.69019,0-.3811.49609-.69019,1.1084-.69019h14.12329c.6123,0,1.10864.30908,1.10864.69019v13.25146c0,.38123-.49634.69019-1.10864.69019h-14.12329c-.6123,0-1.1084-.30896-1.1084-.69019v-.69019c0-.3811-.49634-.69019-1.10864-.69019h-13.04395c-.61206,0-1.10864.30908-1.10864.69019v.69019c0,.38123-.49609.69019-1.1084.69019h-14.12329c-.61206,0-1.10864-.30896-1.10864-.69019v-.69019c0-.3811-.49609-.69019-1.1084-.69019h-13.04395c-.6123,0-1.1084.30908-1.1084.69019v.69019c0,.38123-.49634.69019-1.10864.69019h-14.12329c-.6123,0-1.1084-.30896-1.1084-.69019v-.69019c0-.3811-.49634-.69019-1.10864-.69019h-13.0437c-.6123,0-1.1084.30908-1.1084.69019v.69019c0,.38123-.49634.69019-1.10864.69019h-14.12354c-.61206,0-1.10864-.30896-1.10864-.69019v-.69019c0-.3811-.49609-.69019-1.1084-.69019h-13.0437c-.61206,0-1.10864.30908-1.10864.69019v.69019c0,.38123-.49609.69019-1.1084.69019h-14.12354c-.61206,0-1.1084-.30896-1.1084-.69019v-.69019c0-.3811-.49634-.69019-1.1084-.69019h-4.81885v19.30322c0,4.41272,3.57739,7.98999,7.99023,7.98999h199.5c4.41821,0,8-3.58179,8-8v-67.05005c0-2.07007-1.57007-3.80005-3.63013-3.98999l-14.29004-1.31006c-1.36987-.11987-1.57007-2.03003-.26001-2.43994Z"/>
  <path class="cls-1" d="M672.50318,80.89461h-56.09033c15.97021,33.45996,27.28027,69.57996,33.1001,107.5-14.67969-40.83997-38.22998-77.45007-68.31982-107.5h-116.16992c-2.21021,0-4,1.78992-4,4v140.97998c0,2.21008,1.78979,4,4,4h33.27979c0-31.71997,12.26025-59.26001,30.24023-73.05994h52.47998c17.97998,13.79993,30.23975,41.33997,30.23975,73.05994h61.24023c2.20996,0,4-1.78992,4-4V84.89461c0-2.21008-1.79004-4-4-4ZM655.24293,195.35457l-3.96973-2.48999-3.58984,3.01001,1.12988-4.53992-3.95996-2.48999,4.66992-.32007,1.13965-4.55005,1.75,4.3501,4.67041-.32007-3.59033,3,1.75,4.34998Z"/>
</svg>