<?xml version="1.0" encoding="UTF-8"?>
<svg id="Calque_1" data-name="Calque 1" xmlns="http://www.w3.org/2000/svg" viewBox="0 0 412.74 178.42">
  <defs>
    <style>
      .cls-1 {
        fill: #fff;
        stroke-width: 0px;
      }
    </style>
  </defs>
  <g>
    <g>
      <polygon class="cls-1" points="230.4 2.11 206.77 2.11 206.77 15.74 230.4 15.74 230.4 80.5 247.67 80.5 247.67 15.74 271.3 15.74 271.3 2.11 247.67 2.11 230.4 2.11"/>
      <path class="cls-1" d="m299.3,16.93c.95-.94,2.37-1.42,4.26-1.42h30.11l.8-12.61c-3.64-.38-7.54-.64-11.7-.8-4.17-.15-8.41-.24-12.72-.28-4.32-.04-8.56-.06-12.73-.06-5,0-9.03,1.44-12.1,4.32-3.07,2.88-4.64,6.7-4.72,11.47v47.49c.07,4.7,1.65,8.48,4.72,11.36,3.07,2.88,7.1,4.32,12.1,4.32,4.16,0,8.41-.02,12.73-.06,4.32-.04,8.56-.13,12.72-.28,4.16-.15,8.07-.38,11.7-.68l-.8-12.61h-30.11c-1.89,0-3.31-.49-4.26-1.48-.95-.98-1.42-2.42-1.42-4.32v-15.45h31.58v-12.27h-31.58v-12.27c0-1.97.47-3.43,1.42-4.37Z"/>
      <path class="cls-1" d="m391.04,80.5h19.31l-21.13-33.97c-.76-1.29-1.74-2.54-2.95-3.75-1.21-1.21-2.35-2.16-3.41-2.84v-.34c.98-.68,1.97-1.5,2.95-2.44.98-.95,1.89-2.1,2.73-3.47l20.45-31.58h-18.74l-19.87,31.58h-7.17c.11-.59.26-1.17.35-1.76.38-2.54.57-5.09.57-7.67V2.11h-17.27v78.39h17.27v-27.04c0-2.12-.25-4.43-.74-6.93-.05-.27-.11-.53-.17-.8h7.23l20.61,34.76Z"/>
    </g>
    <g>
      <path class="cls-1" d="m248.01,134.73v-.57c4.92-.45,8.46-2.14,10.62-5.06,2.16-2.91,3.24-7.17,3.24-12.78s-.91-9.54-2.73-12.5c-1.82-2.95-4.75-5.02-8.81-6.19-4.05-1.17-9.49-1.76-16.3-1.76-4.47,0-8.37.02-11.7.06-3.33.04-6.4.11-9.2.23-2.8.11-5.72.32-8.75.62v78.39c3.33.23,6.57.42,9.71.57,3.14.15,6.59.25,10.34.28,3.75.04,8.16.06,13.24.06,6.28,0,11.38-.59,15.28-1.76,3.9-1.17,6.78-3.24,8.64-6.19,1.85-2.95,2.78-7.12,2.78-12.5,0-6.28-1.21-11.21-3.64-14.77-2.42-3.56-6.67-5.6-12.72-6.14Zm-14.88-26.24c3.1,0,5.55.27,7.33.8,1.78.53,3.03,1.52,3.75,2.95.72,1.44,1.08,3.56,1.08,6.36s-.34,4.96-1.02,6.48c-.68,1.52-1.84,2.54-3.47,3.07-1.63.53-3.88.83-6.76.91h-12.73v-20.62c.19,0,.37,0,.57,0,3.25.04,7,.06,11.25.06Zm12.78,50.73c-.72,1.63-1.97,2.75-3.75,3.35-1.78.61-4.3.91-7.56.91-4.88,0-9.29-.02-13.29-.06v-23.35h12.95c3.33,0,5.91.34,7.72,1.02,1.82.68,3.1,1.89,3.86,3.64.76,1.74,1.14,4.24,1.14,7.5,0,3.03-.36,5.36-1.08,6.99Z"/>
      <path class="cls-1" d="m334.4,103.77c-2.61-3.07-6.08-5.26-10.39-6.59-4.32-1.32-9.58-1.99-15.79-1.99s-11.47.66-15.79,1.99c-4.32,1.33-7.8,3.52-10.45,6.59-2.65,3.07-4.56,7.23-5.74,12.5-1.18,5.27-1.76,11.84-1.76,19.71s.58,14.33,1.76,19.6c1.17,5.26,3.08,9.45,5.74,12.55,2.65,3.11,6.13,5.3,10.45,6.59s9.58,1.93,15.79,1.93,11.48-.65,15.79-1.93c4.32-1.29,7.78-3.48,10.39-6.59,2.61-3.1,4.52-7.29,5.74-12.55,1.21-5.26,1.82-11.8,1.82-19.6s-.61-14.44-1.82-19.71c-1.21-5.26-3.12-9.43-5.74-12.5Zm-12.1,48.57c-.91,3.94-2.5,6.7-4.77,8.29-2.27,1.59-5.38,2.39-9.32,2.39s-7.14-.8-9.37-2.39c-2.24-1.59-3.83-4.35-4.77-8.29-.95-3.94-1.42-9.39-1.42-16.36s.47-12.53,1.42-16.47c.95-3.94,2.54-6.7,4.77-8.29,2.23-1.59,5.36-2.39,9.37-2.39s7.04.8,9.32,2.39c2.27,1.59,3.86,4.36,4.77,8.29.91,3.94,1.36,9.43,1.36,16.47s-.45,12.42-1.36,16.36Z"/>
      <polygon class="cls-1" points="412.74 96.78 389.11 96.78 371.84 96.78 348.21 96.78 348.21 110.41 371.84 110.41 371.84 175.17 389.11 175.17 389.11 110.41 412.74 110.41 412.74 96.78"/>
    </g>
  </g>
  <g>
    <path class="cls-1" d="m35.28,89.22c0,3.13,2.52,5.63,5.62,5.63s5.64-2.5,5.64-5.63-2.52-5.62-5.64-5.62-5.62,2.52-5.62,5.62Z"/>
    <path class="cls-1" d="m143.43,89.22c0-3.1-2.52-5.62-5.64-5.62s-5.62,2.52-5.62,5.62,2.52,5.63,5.62,5.63,5.64-2.5,5.64-5.63Z"/>
    <path class="cls-1" d="m104.35,177.83v-.02h-.03v.02h.03Z"/>
    <path class="cls-1" d="m175.14,42.79c-9.84-17.96-26.69-31.01-48.76-37.73C109.38-.1,94.38-.09,90.16.03c-.22,0-.45.02-.68.02-.22,0-.45-.02-.67-.02-4.22-.12-19.22-.13-36.21,5.03C30.54,11.78,13.67,24.84,3.83,42.79,1.32,47.38,0,52.58,0,57.88v62.7C0,125.9,1.32,131.12,3.83,135.7c9.84,17.94,26.71,30.98,48.76,37.69,3.7,1.12,7.3,2.02,10.74,2.7v-81.34h-10.77c-2.08,4.45-6.59,7.52-11.84,7.52-7.2,0-13.02-5.84-13.02-13.04s5.82-13.04,13.02-13.04c5.25,0,9.77,3.07,11.84,7.52h21.81v94.08c3.73.4,6.95.57,9.45.62v-94.7h11.04v94.7c2.47-.05,5.7-.2,9.45-.6v-94.09h21.81c2.08-4.45,6.6-7.52,11.82-7.52,7.22,0,13.07,5.84,13.07,13.04s-5.85,13.04-13.07,13.04c-5.22,0-9.74-3.07-11.82-7.52h-10.75v70.09h.02v11.32c3.5-.68,7.19-1.6,10.99-2.77,22.07-6.72,38.93-19.76,48.76-37.69,2.52-4.58,3.83-9.8,3.83-15.12v-62.7c0-5.3-1.32-10.5-3.83-15.09Z"/>
  </g>
</svg>